<?xml version="1.0" standalone="no"?>
<!DOCTYPE svg PUBLIC "-//W3C//DTD SVG 20010904//EN"
 "http://www.w3.org/TR/2001/REC-SVG-20010904/DTD/svg10.dtd">
<svg version="1.0" xmlns="http://www.w3.org/2000/svg"
 width="260.000000pt" height="260.000000pt" viewBox="0 0 260.000000 260.000000"
 preserveAspectRatio="xMidYMid meet">
<metadata>
Created by potrace 1.11, written by Peter Selinger 2001-2013
</metadata>
<g transform="translate(0.000000,260.000000) scale(0.100000,-0.100000)"
fill="#000000" stroke="none">
<path d="M1045 2564 c-97 -13 -169 -31 -295 -71 -60 -19 -169 -84 -209 -125
-71 -72 -66 12 -66 -1053 0 -880 1 -963 17 -995 51 -107 242 -204 483 -246
140 -25 470 -25 610 0 264 46 434 142 491 275 12 28 14 179 14 959 0 697 -3
935 -12 965 -24 81 -144 176 -279 221 -185 61 -227 67 -484 71 -132 2 -253 1
-270 -1z m360 -54 c77 -5 156 -14 175 -19 19 -6 71 -19 115 -29 215 -53 357
-169 322 -264 -7 -19 -19 -43 -27 -54 -18 -25 -128 -104 -146 -104 -6 0 -25
-7 -40 -15 -16 -8 -37 -15 -46 -15 -9 0 -19 -4 -22 -8 -3 -5 -49 -16 -103 -26
-54 -9 -120 -22 -146 -27 -67 -13 -345 -11 -426 2 -161 27 -222 42 -309 75
-210 81 -276 198 -169 301 66 64 212 130 327 147 25 4 56 11 70 17 14 5 77 13
140 18 63 4 122 9 130 10 8 0 78 -4 155 -9z m600 -2165 c-36 -74 -142 -137
-300 -180 -33 -9 -73 -20 -90 -26 -16 -5 -100 -15 -187 -21 -254 -19 -440 1
-653 71 -95 30 -176 81 -216 134 l-24 32 -3 863 c-1 474 0 862 4 862 3 0 23
-14 44 -30 70 -56 256 -130 325 -130 12 0 25 -4 30 -8 19 -17 213 -37 355 -36
135 1 246 12 330 34 19 5 67 16 105 26 86 21 218 83 265 125 l35 31 3 -848 2
-849 -25 -50z"/>
<path d="M1075 2451 c-11 -4 -45 -11 -75 -15 -126 -16 -258 -73 -311 -134 -74
-84 -11 -184 156 -245 108 -39 160 -49 300 -56 215 -11 485 10 520 41 5 4 16
8 24 8 30 0 141 62 170 96 25 28 31 43 31 83 0 41 -5 53 -33 82 -57 59 -166
103 -322 131 -74 13 -433 20 -460 9z m450 -66 c102 -15 121 -21 213 -62 100
-44 126 -96 76 -146 -77 -78 -277 -125 -529 -126 -129 -1 -277 12 -325 28 -14
4 -52 16 -85 27 -94 28 -165 81 -165 120 0 36 123 124 173 124 9 0 18 4 21 8
3 5 45 14 93 21 48 7 93 15 98 16 32 10 344 3 430 -10z"/>
<path d="M1135 2334 c-109 -16 -205 -67 -205 -108 0 -42 63 -74 210 -106 61
-13 231 -9 320 9 147 29 201 90 128 144 -66 48 -113 58 -273 62 -82 2 -163 1
-180 -1z m334 -63 c67 -15 105 -39 91 -56 -35 -42 -398 -58 -512 -22 -32 10
-58 23 -58 31 0 16 39 34 93 42 23 4 49 11 57 15 20 12 262 4 329 -10z"/>
<path d="M1880 1841 c-8 -4 -51 -16 -95 -25 -44 -10 -93 -22 -110 -26 -16 -5
-58 -12 -91 -16 -34 -3 -66 -9 -70 -13 -15 -10 -36 -103 -26 -113 18 -18 66
-4 79 23 7 15 20 32 28 39 13 11 15 0 16 -86 1 -55 4 -110 8 -124 7 -23 11
-25 56 -21 27 1 60 7 72 12 22 8 23 13 17 59 -8 59 15 212 30 207 6 -2 15 -13
21 -25 10 -22 40 -29 60 -14 13 9 35 72 35 100 0 25 -10 33 -30 23z"/>
<path d="M790 1799 c0 -6 5 -19 11 -31 15 -27 -20 -64 -69 -72 -56 -9 -63 -18
-69 -83 -5 -53 -3 -62 16 -80 30 -28 133 -48 163 -32 13 7 26 17 31 23 8 13
27 -10 27 -35 0 -18 15 -23 94 -35 31 -4 51 -3 55 4 13 21 -8 186 -32 247 -25
66 -20 62 -143 89 -85 19 -84 19 -84 5z m80 -184 c0 -11 -9 -26 -20 -33 -18
-11 -20 -10 -20 12 0 13 3 38 6 56 l7 32 13 -23 c7 -13 13 -33 14 -44z"/>
<path d="M1096 1728 c-16 -62 -1 -257 22 -280 6 -6 39 -11 74 -12 l63 -1 5 50
5 50 18 -25 c9 -13 17 -32 17 -41 0 -32 26 -42 91 -35 85 10 89 12 82 49 -9
52 -41 95 -71 99 l-27 3 33 15 c30 14 32 18 32 67 0 87 9 83 -175 83 -160 0
-163 0 -169 -22z m194 -99 c0 -4 -7 -9 -15 -13 -12 -4 -15 3 -15 32 l1 37 14
-25 c8 -14 14 -28 15 -31z"/>
<path d="M713 1342 c6 -91 26 -196 42 -222 3 -6 16 -10 27 -10 38 0 89 -23 83
-38 -3 -7 -5 -18 -5 -23 0 -5 -32 -9 -70 -9 -79 0 -112 -15 -136 -61 -31 -61
-6 -154 61 -222 45 -45 66 -51 155 -45 88 7 134 32 138 76 4 41 -20 53 -51 24
-12 -11 -35 -26 -51 -32 -24 -9 -32 -7 -48 7 -26 23 -48 66 -48 93 0 16 6 20
35 20 28 0 38 5 45 23 5 12 9 17 9 10 1 -6 15 -15 33 -18 37 -9 58 12 58 57 0
23 -6 29 -32 36 -35 9 -36 12 -18 77 5 22 17 72 25 110 9 39 25 89 36 112 18
38 23 42 48 37 32 -7 71 26 71 57 0 16 -7 17 -52 12 -89 -10 -111 -35 -153
-166 l-22 -69 -6 45 c-4 25 -4 75 0 111 5 51 3 66 -8 69 -46 13 -118 30 -143
35 l-29 5 6 -101z m110 -382 c-3 -11 -7 -20 -9 -20 -2 0 -4 9 -4 20 0 11 4 20
9 20 5 0 7 -9 4 -20z"/>
<path d="M1780 1427 c-18 -9 -24 -20 -22 -38 1 -13 5 -67 8 -119 7 -111 3
-119 -71 -128 -36 -4 -46 -1 -51 13 -8 19 9 187 22 219 7 18 3 19 -77 12 -46
-4 -90 -12 -96 -18 -9 -7 -13 -48 -13 -139 0 -91 4 -130 13 -136 6 -4 35 -13
62 -20 77 -18 203 16 263 70 21 19 22 28 22 159 0 151 -2 155 -60 125z"/>
<path d="M1191 1366 c-75 -25 -131 -93 -131 -160 0 -56 46 -143 82 -155 43
-15 119 -14 159 3 36 16 99 76 119 115 27 53 9 155 -34 191 -24 19 -143 23
-195 6z m45 -74 c45 -29 73 -154 40 -181 -32 -26 -83 86 -70 154 6 36 11 40
30 27z"/>
<path d="M1812 1050 c-21 -9 -22 -13 -16 -81 7 -71 7 -71 -15 -60 -12 7 -43
33 -69 57 l-47 46 -65 -7 c-35 -4 -75 -11 -88 -16 l-24 -9 22 -37 c18 -31 21
-49 19 -147 -2 -110 -1 -111 22 -114 44 -4 53 11 54 91 l0 74 50 -38 c62 -47
113 -69 159 -69 62 0 67 14 64 173 -3 134 -4 142 -23 144 -11 1 -30 -2 -43 -7z"/>
<path d="M1180 968 c0 -6 7 -19 15 -28 14 -16 13 -20 -17 -49 -17 -17 -36 -31
-41 -31 -5 0 -24 -7 -43 -16 l-35 -17 3 -76 3 -76 81 -3 c76 -3 83 -1 105 22
29 31 39 32 39 7 0 -30 21 -38 90 -32 l65 6 -3 80 c-4 86 -15 141 -39 193
l-15 32 -104 0 c-73 0 -104 -4 -104 -12z m81 -149 c12 -29 11 -33 -10 -50 -32
-26 -42 -24 -31 7 6 14 10 36 10 50 0 34 15 30 31 -7z"/>
<path d="M1860 679 c-19 -5 -42 -13 -51 -18 -9 -5 -65 -17 -125 -27 -185 -29
-177 -26 -192 -86 -14 -59 -7 -71 34 -66 19 2 33 12 41 29 7 15 20 32 28 39
13 11 15 0 16 -86 1 -55 4 -110 8 -124 7 -23 12 -25 55 -22 26 2 59 7 72 12
22 9 23 13 17 56 -7 56 16 216 31 211 6 -2 17 -15 24 -30 28 -57 92 10 92 98
0 27 0 27 -50 14z"/>
<path d="M677 673 c-4 -3 -7 -70 -7 -149 0 -176 -17 -157 185 -204 50 -11 99
-19 109 -18 21 3 49 69 40 93 -8 21 -80 20 -88 -1 -4 -11 -17 -14 -43 -12 -35
3 -38 6 -41 36 -3 26 0 32 17 32 11 0 32 -5 46 -12 24 -11 29 -9 45 12 25 33
9 50 -54 57 -43 5 -46 8 -46 35 0 51 58 49 70 -3 5 -19 13 -25 41 -27 34 -3
36 -1 47 36 16 54 8 72 -33 72 -43 0 -180 27 -228 46 -42 16 -51 17 -60 7z"/>
<path d="M1283 592 c-94 -3 -107 -9 -77 -39 14 -14 13 -18 -11 -43 -15 -16
-46 -35 -70 -44 -37 -15 -44 -22 -55 -61 -7 -24 -9 -60 -6 -79 l7 -34 75 -7
c74 -7 76 -7 114 24 l39 31 3 -28 c4 -32 24 -37 105 -27 l53 6 0 57 c0 30 -4
69 -9 86 -5 17 -17 57 -26 88 -9 33 -23 61 -33 65 -9 5 -59 7 -109 5z m-10
-172 c4 -19 0 -29 -19 -43 -24 -18 -24 -18 -24 4 0 13 5 38 12 56 13 34 20 30
31 -17z"/>
</g>
</svg>
